<?xml version="1.0" encoding="UTF-8" standalone="no"?>
<svg
   version="1.0"
   width="18046.539pt"
   height="5273.8711pt"
   viewBox="0 0 18046.539 5273.8711"
   preserveAspectRatio="xMidYMid"
   id="svg131"
   sodipodi:docname="intere-editado-2.svg"
   inkscape:version="1.4.2 (ebf0e940d0, 2025-05-08)"
   inkscape:export-filename="logo-pequeno.png"
   inkscape:export-xdpi="1"
   inkscape:export-ydpi="1"
   xmlns:inkscape="http://www.inkscape.org/namespaces/inkscape"
   xmlns:sodipodi="http://sodipodi.sourceforge.net/DTD/sodipodi-0.dtd"
   xmlns="http://www.w3.org/2000/svg"
   xmlns:svg="http://www.w3.org/2000/svg">
  <defs
     id="defs131" />
  <sodipodi:namedview
     id="namedview131"
     pagecolor="#ffffff"
     bordercolor="#000000"
     borderopacity="0.25"
     inkscape:showpageshadow="2"
     inkscape:pageopacity="0.0"
     inkscape:pagecheckerboard="0"
     inkscape:deskcolor="#d1d1d1"
     inkscape:document-units="pt"
     inkscape:zoom="0.055591812"
     inkscape:cx="10280.291"
     inkscape:cy="2113.6206"
     inkscape:window-width="1870"
     inkscape:window-height="1011"
     inkscape:window-x="0"
     inkscape:window-y="0"
     inkscape:window-maximized="1"
     inkscape:current-layer="g131" />
  <g
     transform="matrix(0.1,0,0,-0.1,-421.56138,5390.1777)"
     fill="#000000"
     stroke="none"
     id="g131">
    <g
       id="g132"
       transform="matrix(1.3862621,0,0,1.3862621,-10603.528,-4582.4698)">
      <path
         d="m 36408.079,41293.218 v -895.229 h 3047.577 3048.209 l -6482.981,-6482.981 -6483.613,-6483.613 -2452.866,2452.233 c -1349.487,1348.855 -2471.845,2466.152 -2494.622,2483.867 -386.562,299.253 -902.821,356.194 -1338.099,148.045 -90.472,-43.654 -143.616,-75.288 -224.598,-135.392 -47.45,-34.797 -1338.732,-1322.282 -6198.911,-6181.829 L 10690,20060.777 l 633.936,-633.936 634.569,-634.569 5919.904,5919.903 5920.536,5920.536 2443.375,-2442.743 c 1579.147,-1577.882 2462.989,-2457.295 2497.786,-2483.867 198.658,-152.473 411.236,-241.047 651.651,-270.783 68.961,-8.225 222.067,-8.225 291.029,0 222.7,27.838 418.828,104.391 610.527,239.15 39.226,27.205 1583.576,1567.759 6761.989,6744.906 l 6710.742,6710.109 v -3035.555 -3034.924 h 898.393 898.392 v 4564.722 4564.722 h -4577.375 -4577.375 z"
         id="path1"
         style="fill:#443075;fill-opacity:1;stroke-width:0.632671" />
      <path
         d="m 41883.847,34758.359 c -13.919,-4.429 -41.123,-15.817 -60.104,-25.307 -29.735,-15.184 -973.68,-955.966 -6128.684,-6110.97 -4796.28,-4796.279 -6096.419,-6092.622 -6103.378,-6087.561 -5.061,3.796 -1230.545,1173.605 -2723.649,2599.646 -1492.471,1426.673 -2724.914,2600.278 -2738.2,2608.502 -109.453,67.064 -256.865,46.818 -344.806,-47.45 -33.532,-35.429 -49.981,-65.798 -64.533,-115.146 -9.49,-31.634 -10.122,-943.313 -8.857,-10514.993 l 1.898,-10480.1966 20.245,-41.7563 c 28.471,-56.9403 75.288,-103.1253 134.127,-131.5955 l 48.083,-22.7762 2451.6,-1.898 c 2230.166,-1.2653 2454.131,-0.6327 2485.765,8.8574 49.981,14.5514 80.349,31.0009 115.779,64.5324 37.327,34.7969 59.471,70.2265 75.287,122.1056 12.021,37.3275 12.021,209.4141 12.021,7511.0712 v 7473.11 l 272.049,272.049 271.416,271.416 22.143,-18.348 c 12.021,-10.755 790.839,-753.511 1730.356,-1651.271 l 1708.211,-1632.291 0.633,-6093.888 c 0,-5950.2716 0,-6094.5207 12.021,-6131.8482 15.817,-51.8791 37.96,-87.3087 75.288,-122.1056 35.429,-32.8989 64.532,-49.3483 115.146,-64.5324 32.266,-10.1227 338.479,-10.7554 4365.43,-6.9594 2833.101,2.5307 4343.92,6.3267 4368.594,10.7554 116.411,18.9801 207.516,115.7788 223.966,235.9863 3.796,27.8376 6.326,5309.3759 7.592,13978.8669 l 1.898,13934.581 -13.919,35.429 c -46.818,117.677 -142.351,182.842 -266.987,182.21 -22.777,0 -52.512,-3.796 -66.431,-8.225 z m 48.716,-14192.71 c -1.265,-7626.85 -4.429,-13868.7828 -6.96,-13870.6808 -1.898,-2.5307 -1930.279,-6.3267 -4285.081,-8.8574 l -4281.917,-4.4287 v 6082.4999 c 0,5471.339 -1.266,6086.296 -9.491,6119.827 -5.694,20.878 -17.714,52.512 -27.837,69.594 -13.286,24.041 -417.563,414.399 -1755.03,1692.395 -955.966,913.577 -1741.11,1663.925 -1744.906,1668.354 -5.695,5.694 1359.61,1374.161 6049.6,6062.254 3331.646,3330.38 6059.091,6054.662 6060.989,6055.295 1.898,0 1.898,-6240.035 0.633,-13866.252 z m -15223.331,4309.755 c 1445.653,-1380.488 2640.136,-2521.194 2654.055,-2534.48 l 25.307,-24.674 -292.295,-292.294 c -190.434,-191.7 -296.09,-302.417 -304.947,-319.499 -7.592,-14.552 -17.715,-43.022 -22.776,-63.267 -8.225,-32.267 -9.49,-895.863 -9.49,-7497.153 V 6682.9475 h -2375.68 -2375.68 V 17069.508 27456.069 l 36.695,-34.796 c 19.613,-19.613 1219.157,-1165.381 2664.811,-2545.869 z"
         id="path2"
         style="fill:#443075;fill-opacity:1;stroke-width:0.632671" />
      <path
         d="m 21035.437,25175.923 c -18.347,-6.327 -43.654,-18.348 -56.307,-25.94 -12.021,-7.592 -1388.081,-1396.305 -3056.434,-3086.169 -1668.987,-1689.865 -3101.987,-3140.579 -3184.234,-3224.725 -132.861,-134.126 -153.106,-157.535 -171.454,-196.128 l -20.878,-43.654 -1.898,-5978.742 c -0.633,-3827.0268 0.633,-5990.7619 5.062,-6011.6401 17.714,-98.064 92.37,-180.9439 188.536,-210.6794 34.164,-10.7554 237.251,-11.3881 3995.317,-15.8168 L 22691.77,6378 v 3388.5863 3388.5867 h -645.324 -645.325 v 5904.719 5904.086 l -15.184,42.389 c -28.47,80.349 -86.043,138.555 -166.392,167.658 -52.512,18.98 -134.127,20.245 -184.108,1.898 z m 68.329,-6168.543 v -5852.207 h -920.537 -920.536 V 9919.06 6682.9475 h -2211.185 -2211.186 v 5918.6375 5918.638 l 3130.457,3169.682 c 1721.498,1743.009 3130.456,3169.682 3131.721,3169.682 0.633,0 1.266,-2633.177 1.266,-5852.207 z"
         id="path3"
         style="fill:#443075;fill-opacity:1;stroke-width:0.632671" />
    </g>
    <path
       d="M 51096.021,16633.432 V 4397.4549 h 3460.321 3460.319 V 16633.432 28869.406 h -3460.319 -3460.321 z"
       id="path4"
       style="fill:#443075;fill-opacity:1;stroke-width:2.37822" />
    <path
       d="M 62939.59,16633.432 V 4397.4549 h 3388.972 3388.974 l 4.756,6511.5851 7.135,6511.583 5396.196,-6511.583 5396.195,-6511.5851 h 2851.495 2849.115 V 16633.432 28869.406 h -3388.973 -3388.972 l -4.757,-6516.34 -7.136,-6513.963 -5398.574,6513.963 -5398.574,6516.34 H 65788.706 62939.59 Z"
       id="path5"
       style="fill:#443075;fill-opacity:1;stroke-width:2.37822" />
    <path
       d="m 88814.694,26122.554 v -2746.85 h 3757.598 3757.599 V 13886.58 4397.4549 h 3460.319 3460.32 v 9489.1251 9489.124 l 3740.96,4.755 3738.57,7.136 7.13,2742.094 4.76,2739.717 H 99778.32 88814.694 Z"
       id="path6"
       style="fill:#443075;fill-opacity:1;stroke-width:2.37822" />
    <path
       d="M 113310.43,16633.432 V 4397.4549 h 9822.08 9822.07 V 7072.96 9748.4656 h -6397.42 -6397.43 v 2235.5324 2235.534 h 5434.24 5434.25 v 2580.375 2580.375 h -5434.25 -5434.24 v 2069.057 2069.057 h 6171.49 6171.5 v 2675.505 2675.505 h -9596.14 -9596.15 z"
       id="path7"
       style="fill:#443075;fill-opacity:1;stroke-width:2.37822" />
    <path
       d="M 136807.31,16633.432 V 4397.4549 h 3460.31 3460.32 v 3246.2797 3246.2804 h 1885.94 1883.56 l 2211.74,-3241.5249 2214.13,-3239.1429 3702.9,-7.135 c 2035.76,-2.3795 3702.9,0 3702.9,7.135 0,7.1334 -1174.84,1721.8348 -2611.3,3809.9174 -1436.45,2090.4624 -2618.42,3812.2994 -2627.92,3826.5674 -9.53,19.026 111.76,97.508 344.82,223.554 2366.34,1279.486 3805.17,3224.874 4261.78,5767.198 185.51,1029.773 204.53,2202.239 49.96,3258.171 -221.19,1526.822 -787.2,2861.007 -1690.93,3995.421 -268.73,335.33 -898.96,965.56 -1234.3,1234.3 -1562.49,1243.812 -3664.85,2023.871 -6100.15,2259.315 -815.73,80.86 -1260.46,85.615 -7079.97,85.615 h -5833.79 z m 11698.49,6732.759 c 832.37,-109.398 1450.72,-323.439 1990.57,-684.93 696.83,-463.754 1132.04,-1158.195 1298.51,-2064.3 68.97,-371.003 73.74,-1203.383 11.89,-1545.848 -126.04,-692.064 -392.4,-1241.433 -808.6,-1681.406 -615.95,-646.877 -1533.94,-1017.88 -2799.17,-1124.901 -152.2,-11.891 -1201,-23.783 -2371.08,-23.783 h -2099.98 v 3593.5 3591.123 l 2242.68,-9.513 c 1909.7,-7.135 2283.09,-14.268 2535.18,-49.942 z"
       id="path8"
       style="fill:#443075;fill-opacity:1;stroke-width:2.37822" />
    <path
       d="M 162682.41,16633.432 V 4397.4549 h 9822.07 9822.09 V 7072.96 9748.4656 h -6397.44 -6397.42 v 2235.5324 2235.534 h 5434.23 5434.25 v 2580.375 2580.375 h -5434.25 -5434.23 v 2069.057 2069.057 h 6171.5 6171.5 v 2675.505 2675.505 h -9596.15 -9596.15 z"
       id="path9"
       style="fill:#443075;fill-opacity:1;stroke-width:2.37822" />
    <path
       d="M 87934.75,3921.8103 V 1710.0592 h -2199.858 -2199.859 v -273.4958 -273.4958 h 2485.245 2485.247 v 2485.2469 2485.2469 h -285.387 -285.388 z"
       id="path10"
       style="fill:#443075;fill-opacity:1;stroke-width:2.37822" />
    <path
       d="M 134571.78,3921.8103 V 1710.0592 h -2211.75 -2211.75 v -273.4958 -273.4958 h 2485.24 2485.25 v 2485.2469 2485.2469 h -273.5 -273.49 z"
       id="path11"
       style="fill:#443075;fill-opacity:1;stroke-width:2.37822" />
    <path
       d="M 184134.01,3921.8103 V 1710.0592 h -2199.86 -2199.86 v -273.4958 -273.4958 h 2473.36 2473.35 v 2485.2469 2485.2469 h -273.5 -273.49 z"
       id="path12"
       style="fill:#443075;fill-opacity:1;stroke-width:2.37822" />
  </g>
</svg>
