<?xml version="1.0" encoding="UTF-8" standalone="no"?>
<svg
   version="1.0"
   width="13212.000000pt"
   height="6684.000000pt"
   viewBox="0 0 13212.000000 6684.000000"
   preserveAspectRatio="xMidYMid meet"
   id="svg131"
   sodipodi:docname="intere-editado.svg"
   inkscape:version="1.4.2 (ebf0e940d0, 2025-05-08)"
   inkscape:export-filename="logo-pequeno.png"
   inkscape:export-xdpi="1"
   inkscape:export-ydpi="1"
   xmlns:inkscape="http://www.inkscape.org/namespaces/inkscape"
   xmlns:sodipodi="http://sodipodi.sourceforge.net/DTD/sodipodi-0.dtd"
   xmlns="http://www.w3.org/2000/svg"
   xmlns:svg="http://www.w3.org/2000/svg">
  <defs
     id="defs131" />
  <sodipodi:namedview
     id="namedview131"
     pagecolor="#ffffff"
     bordercolor="#000000"
     borderopacity="0.25"
     inkscape:showpageshadow="2"
     inkscape:pageopacity="0.0"
     inkscape:pagecheckerboard="0"
     inkscape:deskcolor="#d1d1d1"
     inkscape:document-units="pt"
     inkscape:zoom="0.063712606"
     inkscape:cx="8773.7739"
     inkscape:cy="3131.2485"
     inkscape:window-width="1870"
     inkscape:window-height="1011"
     inkscape:window-x="0"
     inkscape:window-y="0"
     inkscape:window-maximized="1"
     inkscape:current-layer="g131" />
  <g
     transform="translate(0.000000,6684.000000) scale(0.100000,-0.100000)"
     fill="#000000"
     stroke="none"
     id="g131">
    <g
       id="g132"
       transform="matrix(1.3862621,0,0,1.3862621,-10603.528,-4582.4698)">
      <path
         d="m 36408.079,41293.218 v -895.229 h 3047.577 3048.209 l -6482.981,-6482.981 -6483.613,-6483.613 -2452.866,2452.233 c -1349.487,1348.855 -2471.845,2466.152 -2494.622,2483.867 -386.562,299.253 -902.821,356.194 -1338.099,148.045 -90.472,-43.654 -143.616,-75.288 -224.598,-135.392 -47.45,-34.797 -1338.732,-1322.282 -6198.911,-6181.829 L 10690,20060.777 l 633.936,-633.936 634.569,-634.569 5919.904,5919.903 5920.536,5920.536 2443.375,-2442.743 c 1579.147,-1577.882 2462.989,-2457.295 2497.786,-2483.867 198.658,-152.473 411.236,-241.047 651.651,-270.783 68.961,-8.225 222.067,-8.225 291.029,0 222.7,27.838 418.828,104.391 610.527,239.15 39.226,27.205 1583.576,1567.759 6761.989,6744.906 l 6710.742,6710.109 v -3035.555 -3034.924 h 898.393 898.392 v 4564.722 4564.722 h -4577.375 -4577.375 z"
         id="path1"
         style="fill:#443075;fill-opacity:1;stroke-width:0.632671" />
      <path
         d="m 41883.847,34758.359 c -13.919,-4.429 -41.123,-15.817 -60.104,-25.307 -29.735,-15.184 -973.68,-955.966 -6128.684,-6110.97 -4796.28,-4796.279 -6096.419,-6092.622 -6103.378,-6087.561 -5.061,3.796 -1230.545,1173.605 -2723.649,2599.646 -1492.471,1426.673 -2724.914,2600.278 -2738.2,2608.502 -109.453,67.064 -256.865,46.818 -344.806,-47.45 -33.532,-35.429 -49.981,-65.798 -64.533,-115.146 -9.49,-31.634 -10.122,-943.313 -8.857,-10514.993 l 1.898,-10480.1966 20.245,-41.7563 c 28.471,-56.9403 75.288,-103.1253 134.127,-131.5955 l 48.083,-22.7762 2451.6,-1.898 c 2230.166,-1.2653 2454.131,-0.6327 2485.765,8.8574 49.981,14.5514 80.349,31.0009 115.779,64.5324 37.327,34.7969 59.471,70.2265 75.287,122.1056 12.021,37.3275 12.021,209.4141 12.021,7511.0712 v 7473.11 l 272.049,272.049 271.416,271.416 22.143,-18.348 c 12.021,-10.755 790.839,-753.511 1730.356,-1651.271 l 1708.211,-1632.291 0.633,-6093.888 c 0,-5950.2716 0,-6094.5207 12.021,-6131.8482 15.817,-51.8791 37.96,-87.3087 75.288,-122.1056 35.429,-32.8989 64.532,-49.3483 115.146,-64.5324 32.266,-10.1227 338.479,-10.7554 4365.43,-6.9594 2833.101,2.5307 4343.92,6.3267 4368.594,10.7554 116.411,18.9801 207.516,115.7788 223.966,235.9863 3.796,27.8376 6.326,5309.3759 7.592,13978.8669 l 1.898,13934.581 -13.919,35.429 c -46.818,117.677 -142.351,182.842 -266.987,182.21 -22.777,0 -52.512,-3.796 -66.431,-8.225 z m 48.716,-14192.71 c -1.265,-7626.85 -4.429,-13868.7828 -6.96,-13870.6808 -1.898,-2.5307 -1930.279,-6.3267 -4285.081,-8.8574 l -4281.917,-4.4287 v 6082.4999 c 0,5471.339 -1.266,6086.296 -9.491,6119.827 -5.694,20.878 -17.714,52.512 -27.837,69.594 -13.286,24.041 -417.563,414.399 -1755.03,1692.395 -955.966,913.577 -1741.11,1663.925 -1744.906,1668.354 -5.695,5.694 1359.61,1374.161 6049.6,6062.254 3331.646,3330.38 6059.091,6054.662 6060.989,6055.295 1.898,0 1.898,-6240.035 0.633,-13866.252 z m -15223.331,4309.755 c 1445.653,-1380.488 2640.136,-2521.194 2654.055,-2534.48 l 25.307,-24.674 -292.295,-292.294 c -190.434,-191.7 -296.09,-302.417 -304.947,-319.499 -7.592,-14.552 -17.715,-43.022 -22.776,-63.267 -8.225,-32.267 -9.49,-895.863 -9.49,-7497.153 V 6682.9475 h -2375.68 -2375.68 V 17069.508 27456.069 l 36.695,-34.796 c 19.613,-19.613 1219.157,-1165.381 2664.811,-2545.869 z"
         id="path2"
         style="fill:#443075;fill-opacity:1;stroke-width:0.632671" />
      <path
         d="m 21035.437,25175.923 c -18.347,-6.327 -43.654,-18.348 -56.307,-25.94 -12.021,-7.592 -1388.081,-1396.305 -3056.434,-3086.169 -1668.987,-1689.865 -3101.987,-3140.579 -3184.234,-3224.725 -132.861,-134.126 -153.106,-157.535 -171.454,-196.128 l -20.878,-43.654 -1.898,-5978.742 c -0.633,-3827.0268 0.633,-5990.7619 5.062,-6011.6401 17.714,-98.064 92.37,-180.9439 188.536,-210.6794 34.164,-10.7554 237.251,-11.3881 3995.317,-15.8168 L 22691.77,6378 v 3388.5863 3388.5867 h -645.324 -645.325 v 5904.719 5904.086 l -15.184,42.389 c -28.47,80.349 -86.043,138.555 -166.392,167.658 -52.512,18.98 -134.127,20.245 -184.108,1.898 z m 68.329,-6168.543 v -5852.207 h -920.537 -920.536 V 9919.06 6682.9475 h -2211.185 -2211.186 v 5918.6375 5918.638 l 3130.457,3169.682 c 1721.498,1743.009 3130.456,3169.682 3131.721,3169.682 0.633,0 1.266,-2633.177 1.266,-5852.207 z"
         id="path3"
         style="fill:#443075;fill-opacity:1;stroke-width:0.632671" />
    </g>
    <g
       id="g133"
       transform="matrix(1.3862621,0,0,1.3862621,-36223.634,-4092.9137)">
      <path
         d="m 62600,16525 v -5145 h 1455 1455 v 5145 5145 h -1455 -1455 z"
         id="path4"
         style="fill:#443075;fill-opacity:1" />
      <path
         d="m 67580,16525 v -5145 h 1425 1425 l 2,2738 3,2738 2269,-2738 2269,-2738 h 1199 1198 v 5145 5145 h -1425 -1425 l -2,-2740 -3,-2739 -2270,2739 -2270,2740 h -1197 -1198 z"
         id="path5"
         style="fill:#443075;fill-opacity:1" />
      <path
         d="m 78460,20515 v -1155 h 1580 1580 v -3990 -3990 h 1455 1455 v 3990 3990 l 1573,2 1572,3 3,1153 2,1152 h -4610 -4610 z"
         id="path6"
         style="fill:#443075;fill-opacity:1" />
      <path
         d="m 88760,16525 v -5145 h 4130 4130 v 1125 1125 h -2690 -2690 v 940 940 h 2285 2285 v 1085 1085 h -2285 -2285 v 870 870 h 2595 2595 v 1125 1125 h -4035 -4035 z"
         id="path7"
         style="fill:#443075;fill-opacity:1" />
      <path
         d="m 98640,16525 v -5145 h 1455 1455 v 1365 1365 h 793 792 l 930,-1363 931,-1362 1557,-3 c 856,-1 1557,0 1557,3 0,3 -494,724 -1098,1602 -604,879 -1101,1603 -1105,1609 -4,8 47,41 145,94 995,538 1600,1356 1792,2425 78,433 86,926 21,1370 -93,642 -331,1203 -711,1680 -113,141 -378,406 -519,519 -657,523 -1541,851 -2565,950 -343,34 -530,36 -2977,36 h -2453 z m 4919,2831 c 350,-46 610,-136 837,-288 293,-195 476,-487 546,-868 29,-156 31,-506 5,-650 -53,-291 -165,-522 -340,-707 -259,-272 -645,-428 -1177,-473 -64,-5 -505,-10 -997,-10 h -883 v 1511 1510 l 943,-4 c 803,-3 960,-6 1066,-21 z"
         id="path8"
         style="fill:#443075;fill-opacity:1" />
      <path
         d="m 109520,16525 v -5145 h 4130 4130 v 1125 1125 h -2690 -2690 v 940 940 h 2285 2285 v 1085 1085 h -2285 -2285 v 870 870 h 2595 2595 v 1125 1125 h -4035 -4035 z"
         id="path9"
         style="fill:#443075;fill-opacity:1" />
      <path
         d="m 78090,11180 v -930 h -925 -925 v -115 -115 h 1045 1045 v 1045 1045 h -120 -120 z"
         id="path10"
         style="fill:#443075;fill-opacity:1" />
      <path
         d="m 97700,11180 v -930 h -930 -930 v -115 -115 h 1045 1045 v 1045 1045 h -115 -115 z"
         id="path11"
         style="fill:#443075;fill-opacity:1" />
      <path
         d="m 118540,11180 v -930 h -925 -925 v -115 -115 h 1040 1040 v 1045 1045 h -115 -115 z"
         id="path12"
         style="fill:#443075;fill-opacity:1" />
      <path
         d="m 68975,8706 c -118,-37 -181,-109 -192,-221 -11,-101 43,-195 140,-248 36,-19 57,-22 152,-22 94,0 116,3 150,22 111,60 167,185 135,303 -18,68 -97,141 -176,163 -70,20 -152,21 -209,3 z"
         id="path13"
         style="fill:#443075;fill-opacity:1" />
      <path
         d="m 76535,8706 c -118,-37 -181,-109 -192,-221 -11,-101 43,-195 140,-248 36,-19 57,-22 152,-22 94,0 116,3 150,22 111,60 167,185 135,303 -18,68 -97,141 -176,163 -70,20 -152,21 -209,3 z"
         id="path14"
         style="fill:#443075;fill-opacity:1" />
      <path
         d="m 85035,8706 c -118,-37 -181,-109 -192,-221 -11,-101 43,-195 140,-248 36,-19 57,-22 152,-22 94,0 116,3 150,22 111,60 167,185 135,303 -18,68 -97,141 -176,163 -70,20 -152,21 -209,3 z"
         id="path15"
         style="fill:#443075;fill-opacity:1" />
      <path
         d="m 89745,8706 c -118,-37 -181,-109 -192,-221 -11,-101 43,-195 140,-248 36,-19 57,-22 152,-22 94,0 116,3 150,22 111,60 167,185 135,303 -18,68 -97,141 -176,163 -70,20 -152,21 -209,3 z"
         id="path16"
         style="fill:#443075;fill-opacity:1" />
      <path
         d="m 107735,8706 c -118,-37 -181,-109 -192,-221 -11,-101 43,-195 140,-248 36,-19 57,-22 152,-22 94,0 116,3 150,22 111,60 167,185 135,303 -18,68 -97,141 -176,163 -70,20 -152,21 -209,3 z"
         id="path17"
         style="fill:#443075;fill-opacity:1" />
      <path
         d="m 109335,8706 c -118,-37 -181,-109 -192,-221 -11,-101 43,-195 140,-248 36,-19 57,-22 152,-22 94,0 116,3 150,22 111,60 167,185 135,303 -18,68 -97,141 -176,163 -70,20 -152,21 -209,3 z"
         id="path18"
         style="fill:#443075;fill-opacity:1" />
      <path
         d="m 115095,8706 c -118,-37 -181,-109 -192,-221 -11,-101 43,-195 140,-248 36,-19 57,-22 152,-22 94,0 116,3 150,22 111,60 167,185 135,303 -18,68 -97,141 -176,163 -70,20 -152,21 -209,3 z"
         id="path19"
         style="fill:#443075;fill-opacity:1" />
      <path
         d="m 71729,8423 c -84,-98 -159,-186 -167,-195 -14,-17 -6,-18 145,-18 h 161 l 106,95 c 59,52 110,95 114,95 4,0 56,-43 115,-95 l 108,-95 h 155 c 93,0 154,4 152,9 -1,6 -74,93 -162,195 l -158,186 h -209 -208 z"
         id="path20"
         style="fill:#443075;fill-opacity:1" />
      <path
         d="m 110299,8423 c -84,-98 -159,-186 -167,-195 -14,-17 -6,-18 145,-18 h 161 l 106,95 c 59,52 110,95 114,95 4,0 56,-43 115,-95 l 108,-95 h 155 c 93,0 154,4 152,9 -1,6 -74,93 -162,195 l -158,186 h -209 -208 z"
         id="path21"
         style="fill:#443075;fill-opacity:1" />
      <path
         d="m 68040,7615 v -945 h 240 240 v 945 945 h -240 -240 z"
         id="path22"
         style="fill:#443075;fill-opacity:1" />
      <path
         d="m 92010,7615 v -945 h 240 240 v 945 945 h -240 -240 z"
         id="path23"
         style="fill:#443075;fill-opacity:1" />
      <path
         d="m 108400,7615 v -945 h 240 240 v 945 945 h -240 -240 z"
         id="path24"
         style="fill:#443075;fill-opacity:1" />
      <path
         d="m 62690,7560 v -890 h 250 250 v 890 890 h -250 -250 z"
         id="path25"
         style="fill:#443075;fill-opacity:1" />
      <path
         d="m 79390,8250 v -200 h 275 275 v -690 -690 h 250 250 v 690 690 h 275 275 v 200 200 h -800 -800 z"
         id="path26"
         style="fill:#443075;fill-opacity:1" />
      <path
         d="m 102710,7560 v -890 h 250 250 v 235 236 l 142,-3 141,-3 161,-232 161,-233 h 267 c 148,0 268,2 268,5 0,3 -85,128 -189,277 l -189,273 51,29 c 28,16 81,59 119,94 124,117 185,282 175,477 -13,277 -171,481 -439,571 -145,48 -223,54 -715,54 h -453 z m 955,462 c 104,-48 140,-107 140,-232 0,-75 -3,-90 -28,-133 -59,-101 -140,-127 -394,-127 h -173 v 261 260 l 203,-3 c 186,-3 206,-5 252,-26 z"
         id="path27"
         style="fill:#443075;fill-opacity:1" />
      <path
         d="m 65360,8180 v -180 h -100 -100 v -180 -180 h 100 100 v -265 c 0,-203 4,-284 16,-342 37,-182 136,-294 308,-349 158,-50 387,-42 521,20 l 53,24 -60,169 -60,170 -39,-20 c -25,-12 -61,-19 -99,-20 -66,0 -95,14 -134,67 -20,26 -21,43 -24,287 l -4,259 h 161 161 v 180 180 h -160 -160 v 180 180 h -240 -240 z"
         id="path28"
         style="fill:#443075;fill-opacity:1" />
      <path
         d="m 85750,8180 v -180 h -100 -100 v -180 -180 h 100 100 v -265 c 0,-203 4,-284 16,-342 37,-182 136,-294 308,-349 158,-50 387,-42 521,20 l 53,24 -60,169 -60,170 -39,-20 c -25,-12 -61,-19 -99,-20 -66,0 -95,14 -134,67 -20,26 -21,43 -24,287 l -4,259 h 161 161 v 180 180 h -160 -160 v 180 180 h -240 -240 z"
         id="path29"
         style="fill:#443075;fill-opacity:1" />
      <path
         d="m 64285,8055 c -95,-21 -165,-51 -230,-100 l -60,-45 -3,70 -3,70 h -229 -230 v -690 -690 h 240 239 l 3,388 c 4,420 5,431 61,504 85,111 273,132 366,39 67,-67 71,-100 71,-544 v -387 h 240 240 v 458 c 0,421 -2,465 -19,534 -56,218 -190,349 -403,392 -92,19 -200,19 -283,1 z"
         id="path30"
         style="fill:#443075;fill-opacity:1" />
      <path
         d="m 66920,8059 c -79,-14 -212,-62 -276,-100 -312,-188 -421,-582 -256,-919 56,-115 178,-233 302,-293 149,-73 242,-92 440,-91 136,1 179,5 244,23 108,29 212,82 280,142 l 56,51 -127,132 -128,133 -55,-37 c -78,-52 -133,-71 -225,-77 -123,-8 -227,20 -294,81 -29,26 -81,105 -81,123 0,11 95,13 499,13 h 499 l 6,64 c 9,79 0,169 -25,266 -81,303 -366,503 -714,499 -49,-1 -115,-5 -145,-10 z m 275,-358 c 59,-26 100,-65 129,-123 47,-94 65,-88 -254,-88 -217,0 -280,3 -280,13 0,18 46,109 67,133 74,85 225,114 338,65 z"
         id="path31"
         style="fill:#443075;fill-opacity:1" />
      <path
         d="m 70066,8053 c -368,-78 -585,-415 -511,-791 47,-237 232,-433 470,-497 33,-9 105,-18 160,-21 161,-9 297,29 393,112 24,20 46,33 49,30 4,-4 2,-43 -5,-88 -25,-169 -115,-246 -312,-264 -136,-13 -342,34 -457,103 -31,18 -60,30 -64,26 -10,-11 -169,-314 -169,-322 0,-14 156,-89 236,-114 160,-50 244,-62 449,-61 171,1 200,3 287,27 262,69 420,223 490,474 22,76 22,96 26,731 l 3,652 h -230 -231 v -81 -82 l -55,52 c -30,29 -79,63 -109,77 -115,53 -281,67 -420,37 z m 384,-389 c 101,-32 170,-122 178,-233 11,-160 -85,-279 -245,-300 -182,-25 -333,80 -350,244 -23,219 184,362 417,289 z"
         id="path32"
         style="fill:#443075;fill-opacity:1" />
      <path
         d="m 71950,8059 c -79,-14 -212,-62 -276,-100 -312,-188 -421,-582 -256,-919 56,-115 178,-233 302,-293 149,-73 242,-92 440,-91 136,1 179,5 244,23 108,29 212,82 280,142 l 56,51 -127,132 -128,133 -55,-37 c -78,-52 -133,-71 -225,-77 -123,-8 -227,20 -294,81 -29,26 -81,105 -81,123 0,11 95,13 499,13 h 499 l 6,64 c 9,79 0,169 -25,266 -81,303 -366,503 -714,499 -49,-1 -115,-5 -145,-10 z m 275,-358 c 59,-26 100,-65 129,-123 47,-94 65,-88 -254,-88 -217,0 -280,3 -280,13 0,18 46,109 67,133 74,85 225,114 338,65 z"
         id="path33"
         style="fill:#443075;fill-opacity:1" />
      <path
         d="m 73825,8055 c -95,-21 -165,-51 -230,-100 l -60,-45 -3,70 -3,70 h -229 -230 v -690 -690 h 240 239 l 3,388 c 4,420 5,431 61,504 85,111 273,132 366,39 67,-67 71,-100 71,-544 v -387 h 240 240 v 458 c 0,421 -2,465 -19,534 -56,218 -190,349 -403,392 -92,19 -200,19 -283,1 z"
         id="path34"
         style="fill:#443075;fill-opacity:1" />
      <path
         d="m 75393,8056 c -170,-33 -304,-98 -413,-202 -87,-83 -139,-166 -177,-279 -24,-71 -27,-95 -27,-215 1,-119 4,-145 27,-215 58,-176 181,-316 348,-399 147,-72 225,-89 409,-89 127,0 169,3 233,21 153,42 285,132 361,246 72,108 82,93 -132,200 l -188,94 -19,-34 c -25,-47 -87,-102 -142,-126 -83,-37 -218,-22 -294,32 -149,106 -158,403 -17,524 78,67 219,89 311,48 55,-24 117,-79 142,-126 l 19,-34 188,94 c 214,107 204,92 132,200 -76,115 -210,205 -361,245 -101,27 -300,34 -400,15 z"
         id="path35"
         style="fill:#443075;fill-opacity:1" />
      <path
         d="m 77595,8056 c -148,-24 -313,-80 -392,-132 l -23,-14 82,-164 82,-165 28,20 c 76,55 230,99 344,99 164,0 263,-64 289,-186 l 6,-32 -243,-5 c -265,-5 -321,-14 -432,-67 -131,-62 -201,-161 -213,-296 -21,-260 160,-440 462,-461 180,-12 338,41 416,139 l 39,50 v -86 -86 h 226 225 l -3,458 c -4,502 -5,509 -69,640 -65,133 -212,240 -384,277 -97,22 -340,28 -440,11 z m 413,-895 c -4,-79 -30,-122 -101,-169 -34,-23 -53,-28 -123,-30 -71,-3 -88,-1 -122,18 -113,63 -89,210 39,240 19,4 96,8 173,9 l 138,1 z"
         id="path36"
         style="fill:#443075;fill-opacity:1" />
      <path
         d="m 81530,8059 c -79,-14 -212,-62 -276,-100 -312,-188 -421,-582 -256,-919 56,-115 178,-233 302,-293 149,-73 242,-92 440,-91 136,1 179,5 244,23 108,29 212,82 280,142 l 56,51 -127,132 -128,133 -55,-37 c -78,-52 -133,-71 -225,-77 -123,-8 -227,20 -294,81 -29,26 -81,105 -81,123 0,11 95,13 499,13 h 499 l 6,64 c 9,79 0,169 -25,266 -81,303 -366,503 -714,499 -49,-1 -115,-5 -145,-10 z m 275,-358 c 59,-26 100,-65 129,-123 47,-94 65,-88 -254,-88 -217,0 -280,3 -280,13 0,18 46,109 67,133 74,85 225,114 338,65 z"
         id="path37"
         style="fill:#443075;fill-opacity:1" />
      <path
         d="m 83465,8064 c -108,-22 -138,-30 -192,-54 -34,-16 -85,-50 -113,-76 l -50,-47 v 82 81 h -230 -230 v -690 -690 h 240 240 v 348 c 0,385 5,427 60,508 31,45 93,87 152,105 18,5 77,10 131,10 h 97 v 214 215 l -42,-1 c -24,-1 -52,-3 -63,-5 z"
         id="path38"
         style="fill:#443075;fill-opacity:1" />
      <path
         d="m 84585,8064 c -108,-22 -138,-30 -192,-54 -34,-16 -85,-50 -113,-76 l -50,-47 v 82 81 h -230 -230 v -690 -690 h 240 240 v 348 c 0,385 5,427 60,508 31,45 93,87 152,105 18,5 77,10 131,10 h 97 v 214 215 l -42,-1 c -24,-1 -52,-3 -63,-5 z"
         id="path39"
         style="fill:#443075;fill-opacity:1" />
      <path
         d="m 87307,8055 c -284,-54 -489,-226 -574,-480 -24,-71 -27,-95 -27,-215 0,-125 2,-141 31,-223 43,-122 85,-187 180,-277 137,-130 302,-196 518,-207 454,-23 797,255 822,667 21,346 -192,629 -542,721 -106,27 -300,34 -408,14 z m 282,-392 c 60,-22 124,-82 152,-146 20,-44 24,-69 24,-157 0,-120 -16,-168 -79,-238 -106,-117 -316,-112 -421,11 -74,87 -97,267 -47,379 64,146 215,207 371,151 z"
         id="path40"
         style="fill:#443075;fill-opacity:1" />
      <path
         d="m 89305,8064 c -108,-22 -138,-30 -192,-54 -34,-16 -85,-50 -113,-76 l -50,-47 v 82 81 h -230 -230 v -690 -690 h 240 240 v 348 c 0,385 5,427 60,508 31,45 93,87 152,105 18,5 77,10 131,10 h 97 v 214 215 l -42,-1 c -24,-1 -52,-3 -63,-5 z"
         id="path41"
         style="fill:#443075;fill-opacity:1" />
      <path
         d="m 90805,8056 c -148,-24 -313,-80 -392,-132 l -23,-14 82,-164 82,-165 28,20 c 76,55 230,99 344,99 164,0 263,-64 289,-186 l 6,-32 -243,-5 c -265,-5 -321,-14 -432,-67 -131,-62 -201,-161 -213,-296 -21,-260 160,-440 462,-461 180,-12 338,41 416,139 l 39,50 v -86 -86 h 226 225 l -3,458 c -4,502 -5,509 -69,640 -65,133 -212,240 -384,277 -97,22 -340,28 -440,11 z m 413,-895 c -4,-79 -30,-122 -101,-169 -34,-23 -53,-28 -123,-30 -71,-3 -88,-1 -122,18 -113,63 -89,210 39,240 19,4 96,8 173,9 l 138,1 z"
         id="path42"
         style="fill:#443075;fill-opacity:1" />
      <path
         d="m 94262,8055 c -84,-19 -161,-55 -211,-100 l -41,-37 v 66 66 h -230 -230 v -935 -935 h 240 240 v 305 305 l 48,-36 c 163,-125 421,-138 642,-32 109,52 227,167 282,273 62,120 82,209 82,365 0,157 -13,221 -75,349 -56,119 -169,231 -289,289 -142,68 -310,89 -458,57 z m 170,-397 c 56,-24 112,-82 141,-147 18,-38 22,-65 22,-151 0,-120 -16,-168 -79,-238 -77,-85 -223,-110 -331,-57 -63,30 -98,69 -134,145 -22,47 -25,69 -25,150 0,102 17,158 70,227 70,92 214,122 336,71 z"
         id="path43"
         style="fill:#443075;fill-opacity:1" />
      <path
         d="m 95685,8056 c -148,-24 -313,-80 -392,-132 l -23,-14 82,-164 82,-165 28,20 c 76,55 230,99 344,99 164,0 263,-64 289,-186 l 6,-32 -243,-5 c -265,-5 -321,-14 -432,-67 -131,-62 -201,-161 -213,-296 -21,-260 160,-440 462,-461 180,-12 338,41 416,139 l 39,50 v -86 -86 h 226 225 l -3,458 c -4,502 -5,509 -69,640 -65,133 -212,240 -384,277 -97,22 -340,28 -440,11 z m 413,-895 c -4,-79 -30,-122 -101,-169 -34,-23 -53,-28 -123,-30 -71,-3 -88,-1 -122,18 -113,63 -89,210 39,240 19,4 96,8 173,9 l 138,1 z"
         id="path44"
         style="fill:#443075;fill-opacity:1" />
      <path
         d="m 97705,8064 c -108,-22 -138,-30 -192,-54 -34,-16 -85,-50 -113,-76 l -50,-47 v 82 81 h -230 -230 v -690 -690 h 240 240 v 348 c 0,385 5,427 60,508 31,45 93,87 152,105 18,5 77,10 131,10 h 97 v 214 215 l -42,-1 c -24,-1 -52,-3 -63,-5 z"
         id="path45"
         style="fill:#443075;fill-opacity:1" />
      <path
         d="m 98395,8056 c -148,-24 -313,-80 -392,-132 l -23,-14 82,-164 82,-165 28,20 c 76,55 230,99 344,99 164,0 263,-64 289,-186 l 6,-32 -243,-5 c -265,-5 -321,-14 -432,-67 -131,-62 -201,-161 -213,-296 -21,-260 160,-440 462,-461 180,-12 338,41 416,139 l 39,50 v -86 -86 h 226 225 l -3,458 c -4,502 -5,509 -69,640 -65,133 -212,240 -384,277 -97,22 -340,28 -440,11 z m 413,-895 c -4,-79 -30,-122 -101,-169 -34,-23 -53,-28 -123,-30 -71,-3 -88,-1 -122,18 -113,63 -89,210 39,240 19,4 96,8 173,9 l 138,1 z"
         id="path46"
         style="fill:#443075;fill-opacity:1" />
      <path
         d="m 100745,8056 c -148,-24 -313,-80 -392,-132 l -23,-14 82,-164 82,-165 28,20 c 76,55 230,99 344,99 164,0 263,-64 289,-186 l 6,-32 -243,-5 c -265,-5 -321,-14 -432,-67 -131,-62 -201,-161 -213,-296 -21,-260 160,-440 462,-461 180,-12 338,41 416,139 l 39,50 v -86 -86 h 226 225 l -3,458 c -4,502 -5,509 -69,640 -65,133 -212,240 -384,277 -97,22 -340,28 -440,11 z m 413,-895 c -4,-79 -30,-122 -101,-169 -34,-23 -53,-28 -123,-30 -71,-3 -88,-1 -122,18 -113,63 -89,210 39,240 19,4 96,8 173,9 l 138,1 z"
         id="path47"
         style="fill:#443075;fill-opacity:1" />
      <path
         d="m 105090,8059 c -79,-14 -212,-62 -276,-100 -225,-136 -348,-377 -331,-646 12,-177 74,-312 202,-440 68,-66 99,-90 176,-127 148,-72 241,-91 439,-90 136,1 179,5 244,23 108,29 212,82 280,142 l 56,51 -127,132 -128,133 -55,-37 c -78,-52 -133,-71 -225,-77 -123,-8 -227,20 -294,81 -29,26 -81,105 -81,123 0,11 95,13 499,13 h 499 l 6,64 c 9,79 0,169 -25,266 -81,303 -366,503 -714,499 -49,-1 -115,-5 -145,-10 z m 275,-358 c 59,-26 100,-65 129,-123 47,-94 65,-88 -254,-88 -217,0 -280,3 -280,13 0,18 46,109 67,133 74,85 225,114 338,65 z"
         id="path48"
         style="fill:#443075;fill-opacity:1" />
      <path
         d="m 106625,8059 c -217,-31 -387,-134 -457,-277 -31,-63 -33,-72 -32,-177 0,-90 4,-119 21,-157 60,-131 190,-206 425,-243 57,-9 143,-23 193,-31 127,-21 175,-53 161,-107 -12,-51 -53,-62 -226,-61 -175,0 -266,18 -396,79 l -71,33 -68,-157 c -38,-86 -70,-159 -72,-163 -6,-11 83,-53 173,-81 155,-49 245,-62 439,-61 161,1 190,3 278,27 179,48 299,133 359,255 31,62 33,74 33,167 0,87 -3,107 -27,156 -71,154 -196,211 -590,272 -99,15 -164,40 -182,69 -19,31 5,71 58,97 44,22 62,25 160,24 125,-1 212,-18 318,-63 39,-17 74,-27 78,-23 7,8 140,309 140,317 0,8 -130,56 -206,75 -153,39 -362,51 -509,30 z"
         id="path49"
         style="fill:#443075;fill-opacity:1" />
      <path
         d="m 110520,8059 c -79,-14 -212,-62 -276,-100 -225,-136 -348,-377 -331,-646 12,-177 74,-312 202,-440 68,-66 99,-90 176,-127 148,-72 241,-91 439,-90 136,1 179,5 244,23 108,29 212,82 280,142 l 56,51 -127,132 -128,133 -55,-37 c -78,-52 -133,-71 -225,-77 -123,-8 -227,20 -294,81 -29,26 -81,105 -81,123 0,11 95,13 499,13 h 499 l 6,64 c 9,79 0,169 -25,266 -81,303 -366,503 -714,499 -49,-1 -115,-5 -145,-10 z m 275,-358 c 59,-26 100,-65 129,-123 47,-94 65,-88 -254,-88 -217,0 -280,3 -280,13 0,18 46,109 67,133 74,85 225,114 338,65 z"
         id="path50"
         style="fill:#443075;fill-opacity:1" />
      <path
         d="m 112385,8055 c -95,-21 -165,-51 -230,-100 l -60,-45 -3,70 -3,70 h -229 -230 v -690 -690 h 240 239 l 3,388 c 4,420 5,431 61,504 85,111 273,132 366,39 67,-67 71,-100 71,-544 v -387 h 240 240 v 458 c 0,421 -2,465 -19,534 -56,218 -190,349 -403,392 -92,19 -200,19 -283,1 z"
         id="path51"
         style="fill:#443075;fill-opacity:1" />
      <path
         d="m 113963,8056 c -170,-33 -304,-98 -413,-202 -87,-83 -139,-166 -177,-279 -24,-71 -27,-95 -27,-215 1,-119 4,-145 27,-215 58,-176 181,-316 348,-399 147,-72 225,-89 409,-89 127,0 169,3 233,21 153,42 285,132 361,246 72,108 82,93 -132,200 l -188,94 -19,-34 c -25,-47 -87,-102 -142,-126 -83,-37 -218,-22 -294,32 -149,106 -158,403 -17,524 78,67 219,89 311,48 55,-24 117,-79 142,-126 l 19,-34 188,94 c 214,107 204,92 132,200 -76,115 -210,205 -361,245 -101,27 -300,34 -400,15 z"
         id="path52"
         style="fill:#443075;fill-opacity:1" />
      <path
         d="m 116155,8056 c -148,-24 -313,-80 -392,-132 l -23,-14 82,-164 82,-165 28,20 c 76,55 230,99 344,99 164,0 263,-64 289,-186 l 6,-32 -243,-5 c -265,-5 -321,-14 -432,-67 -131,-62 -201,-161 -213,-296 -21,-260 160,-440 462,-461 180,-12 338,41 416,139 l 39,50 v -86 -86 h 226 225 l -3,458 c -4,502 -5,509 -69,640 -65,133 -212,240 -384,277 -97,22 -340,28 -440,11 z m 413,-895 c -4,-79 -30,-122 -101,-169 -34,-23 -53,-28 -123,-30 -71,-3 -88,-1 -122,18 -113,63 -89,210 39,240 19,4 96,8 173,9 l 138,1 z"
         id="path53"
         style="fill:#443075;fill-opacity:1" />
      <path
         d="m 68840,7360 v -690 h 240 240 v 690 690 h -240 -240 z"
         id="path55"
         style="fill:#443075;fill-opacity:1" />
      <path
         d="m 76400,7360 v -690 h 240 240 v 690 690 h -240 -240 z"
         id="path56"
         style="fill:#443075;fill-opacity:1" />
      <path
         d="m 84900,7360 v -690 h 240 240 v 690 690 h -240 -240 z"
         id="path57"
         style="fill:#443075;fill-opacity:1" />
      <path
         d="m 89610,7360 v -690 h 240 240 v 690 690 h -240 -240 z"
         id="path58"
         style="fill:#443075;fill-opacity:1" />
      <path
         d="m 107600,7360 v -690 h 240 240 v 690 690 h -240 -240 z"
         id="path59"
         style="fill:#443075;fill-opacity:1" />
      <path
         d="m 109200,7360 v -690 h 240 240 v 690 690 h -240 -240 z"
         id="path60"
         style="fill:#443075;fill-opacity:1" />
      <path
         d="m 114960,7360 v -690 h 240 240 v 690 690 h -240 -240 z"
         id="path61"
         style="fill:#443075;fill-opacity:1" />
    </g>
  </g>
</svg>
